<svg height="256px" width="256px" version="1.1" id="Capa_1" xmlns="http://www.w3.org/2000/svg" xmlns:xlink="http://www.w3.org/1999/xlink" viewBox="-29.75 -29.75 357.00 357.00" xml:space="preserve" fill="#000000" stroke="#000000" stroke-width="0.0029749900000000003" transform="matrix(1, 0, 0, 1, 0, 0)rotate(0)"><g id="SVGRepo_bgCarrier" stroke-width="0" transform="translate(0,0), scale(1)"></g><g id="SVGRepo_tracerCarrier" stroke-linecap="round" stroke-linejoin="round" stroke="#ffffff" stroke-width="6.544978"></g><g id="SVGRepo_iconCarrier"> <g> <g id="XMLID_25_"> <g> <path style="fill:#70ffd4;" d="M94.069,85.439l8.54,12.82h-37.82l24.89-14.1C91.249,83.469,93.109,84.009,94.069,85.439z"></path> <path style="fill:#70ffd4;" d="M232.719,98.259h-37.83l8.55-12.82c0.96-1.43,2.81-1.97,4.39-1.28L232.719,98.259z"></path> <path style="fill:#95fecd;" d="M274.229,121.859c2.17,2.33,3.24,5.37,3.02,8.54l-5.19,72.69c-0.43,5.91-5.4,10.54-11.33,10.54 h-66.47c-5.22,0-9.75-3.53-11.02-8.6l-8.32-33.28c-1.11-4.44-5.1-7.56-9.69-7.56h-32.96c-4.58,0-8.58,3.12-9.69,7.56l-8.32,33.28 c-1.26,5.07-5.79,8.6-11.01,8.6h-66.47c-5.93,0-10.91-4.63-11.33-10.54l-5.19-72.69c-0.23-3.17,0.84-6.21,3.01-8.54 c2.18-2.33,5.13-3.62,8.31-3.62h234.34C269.109,118.239,272.059,119.529,274.229,121.859z M122.849,141.969 c3.9-3.9,3.9-10.22,0-14.13c-3.9-3.9-10.22-3.9-14.12,0l-57.69,57.69c-3.9,3.9-3.9,10.22,0,14.13c1.95,1.95,4.51,2.92,7.07,2.92 c2.55,0,5.11-0.97,7.06-2.92L122.849,141.969z M73.409,141.969c3.9-3.9,3.9-10.22,0-14.13c-3.9-3.9-10.22-3.9-14.13,0 l-24.72,24.73c-3.9,3.9-3.9,10.22,0,14.12c1.95,1.95,4.51,2.93,7.06,2.93c2.56,0,5.12-0.98,7.07-2.93L73.409,141.969z"></path> <path d="M288.849,108.239c5.91,6.35,8.94,14.94,8.32,23.59l-5.19,72.68c-1.16,16.32-14.89,29.1-31.25,29.1h-66.47 c-14.4,0-26.9-9.76-30.4-23.73l-6.42-25.71h-17.37l-6.43,25.71c-3.49,13.97-15.99,23.73-30.39,23.73h-66.47 c-16.36,0-30.09-12.78-31.26-29.1l-5.19-72.68c-0.62-8.65,2.42-17.24,8.32-23.59c3.48-3.73,8.16-6.22,12.53-8.68 c16.12-9.04,58.95-32.95,58.95-32.95c0.15-0.08,0.3-0.17,0.46-0.24c10.59-5.3,23.53-1.86,30.1,7.99l15.93,23.9h44.26l15.94-23.9 c6.57-9.85,19.51-13.29,30.1-7.99c0.15,0.07,0.31,0.16,0.45,0.24c0,0,43.8,24.16,58.95,32.95 C280.659,102.079,285.379,104.509,288.849,108.239z M277.249,130.399c0.22-3.17-0.85-6.21-3.02-8.54 c-2.17-2.33-5.12-3.62-8.31-3.62H31.579c-3.18,0-6.13,1.29-8.31,3.62c-2.17,2.33-3.24,5.37-3.01,8.54l5.19,72.69 c0.42,5.91,5.4,10.54,11.33,10.54h66.47c5.22,0,9.75-3.53,11.01-8.6l8.32-33.28c1.11-4.44,5.11-7.56,9.69-7.56h32.96 c4.59,0,8.58,3.12,9.69,7.56l8.32,33.28c1.27,5.07,5.8,8.6,11.02,8.6h66.47c5.93,0,10.9-4.63,11.33-10.54L277.249,130.399z M194.889,98.259h37.83l-24.89-14.1c-1.58-0.69-3.43-0.15-4.39,1.28L194.889,98.259z M102.609,98.259l-8.54-12.82 c-0.96-1.43-2.82-1.97-4.39-1.28l-24.89,14.1H102.609z"></path> <path d="M122.849,127.839c3.9,3.91,3.9,10.23,0,14.13l-57.68,57.69c-1.95,1.95-4.51,2.92-7.06,2.92c-2.56,0-5.12-0.97-7.07-2.92 c-3.9-3.91-3.9-10.23,0-14.13l57.69-57.69C112.629,123.939,118.949,123.939,122.849,127.839z"></path> <path d="M73.409,127.839c3.9,3.91,3.9,10.23,0,14.13l-24.72,24.72c-1.95,1.95-4.51,2.93-7.07,2.93c-2.55,0-5.11-0.98-7.06-2.93 c-3.9-3.9-3.9-10.22,0-14.12l24.72-24.73C63.189,123.939,69.509,123.939,73.409,127.839z"></path> </g> <g> </g> </g> </g> </g></svg>